ply
format ascii 1.0
comment VCGLIB generated
element vertex 96
property float x
property float y
property float z
element face 144
property list uchar int vertex_indices
end_header
0.0 0.0 0.0
0.5 0.0 0.0
0.0 0.5 0.0
0.5 0.5 0.0
0.0 0.0 0.5
0.5 0.0 0.5
0.0 0.5 0.5
0.5 0.5 0.5
0.6 0.0 0.0
1.1 0.0 0.0
0.6 0.5 0.0
1.1 0.5 0.0
0.6 0.0 0.5
1.1 0.0 0.5
0.6 0.5 0.5
1.1 0.5 0.5
1.2 0.0 0.0
1.7 0.0 0.0
1.2 0.5 0.0
1.7 0.5 0.0
1.2 0.0 0.5
1.7 0.0 0.5
1.2 0.5 0.5
1.7 0.5 0.5
0.0 0.6 0.0
0.5 0.6 0.0
0.0 1.1 0.0
0.5 1.1 0.0
0.0 0.6 0.5
0.5 0.6 0.5
0.0 1.1 0.5
0.5 1.1 0.5
0.6 0.6 0.0
1.1 0.6 0.0
0.6 1.1 0.0
1.1 1.1 0.0
0.6 0.6 0.5
1.1 0.6 0.5
0.6 1.1 0.5
1.1 1.1 0.5
1.2 0.6 0.0
1.7 0.6 0.0
1.2 1.1 0.0
1.7 1.1 0.0
1.2 0.6 0.5
1.7 0.6 0.5
1.2 1.1 0.5
1.7 1.1 0.5
-0.6 0.0 0.0
-0.1 0.0 0.0
-0.6 1.1 0.0
-0.1 1.1 0.0
-0.6 0.0 0.5
-0.1 0.0 0.5
-0.6 1.1 0.5
-0.1 1.1 0.5
-0.6 1.2 0.0
-0.1 1.2 0.0
-0.6 1.7 0.0
-0.1 1.7 0.0
-0.6 1.2 0.5
-0.1 1.2 0.5
-0.6 1.7 0.5
-0.1 1.7 0.5
-0.6 1.8 0.0
-0.1 1.8 0.0
-0.6 2.3 0.0
-0.1 2.3 0.0
-0.6 1.8 0.5
-0.1 1.8 0.5
-0.6 2.3 0.5
-0.1 2.3 0.5
0.0 1.2 0.0
0.5 1.2 0.0
0.0 1.7 0.0
0.5 1.7 0.0
0.0 1.2 0.5
0.5 1.2 0.5
0.0 1.7 0.5
0.5 1.7 0.5
0.6 1.2 0.0
1.1 1.2 0.0
0.6 1.7 0.0
1.1 1.7 0.0
0.6 1.2 0.5
1.1 1.2 0.5
0.6 1.7 0.5
1.1 1.7 0.5
1.2 1.2 0.0
1.7 1.2 0.0
1.2 1.7 0.0
1.7 1.7 0.0
1.2 1.2 0.5
1.7 1.2 0.5
1.2 1.7 0.5
1.7 1.7 0.5
3 9 8 10
3 10 11 9
3 10 8 12
3 12 14 10
3 12 8 9
3 9 13 12
3 13 15 14
3 14 12 13
3 14 15 11
3 11 10 14
3 11 15 13
3 13 9 11
3 1 0 2
3 2 3 1
3 2 0 4
3 4 6 2
3 4 0 1
3 1 5 4
3 5 7 6
3 6 4 5
3 6 7 3 
3 3 2 6 
3 3 7 5 
3 5 1 3 
3 17 16 18
3 18 19 17
3 18 16 20
3 20 22 18
3 20 16 17
3 17 21 20
3 21 23 22
3 22 20 21
3 22 23 19
3 19 18 22
3 19 23 21
3 21 17 19
3 25 24 26
3 26 27 25
3 26 24 28
3 28 30 26
3 28 24 25
3 25 29 28
3 29 31 30
3 30 28 29
3 30 31 27
3 27 26 30
3 27 31 29
3 29 25 27
3 33 32 34
3 34 35 33
3 34 32 36
3 36 38 34
3 36 32 33
3 33 37 36
3 37 39 38
3 38 36 37
3 38 39 35
3 35 34 38
3 35 39 37
3 37 33 35
3 41 40 42
3 42 43 41
3 42 40 44
3 44 46 42
3 44 40 41
3 41 45 44
3 45 47 46
3 46 44 45
3 46 47 43
3 43 42 46
3 43 47 45
3 45 41 43
3 49 48 50
3 50 51 49
3 50 48 52
3 52 54 50
3 52 48 49
3 49 53 52
3 53 55 54
3 54 52 53
3 54 55 51
3 51 50 54
3 51 55 53
3 53 49 51
3 57 56 58
3 58 59 57
3 58 56 60
3 60 62 58
3 60 56 57
3 57 61 60
3 61 63 62
3 62 60 61
3 62 63 59
3 59 58 62
3 59 63 61
3 61 57 59
3 65 64 66
3 66 67 65
3 66 64 68
3 68 70 66
3 68 64 65
3 65 69 68
3 69 71 70
3 70 68 69
3 70 71 67
3 67 66 70
3 67 71 69
3 69 65 67
3 73 72 74
3 74 75 73
3 74 72 76
3 76 78 74
3 76 72 73
3 73 77 76
3 77 79 78
3 78 76 77
3 78 79 75
3 75 74 78
3 75 79 77
3 77 73 75
3 81 80 82
3 82 83 81
3 82 80 84
3 84 86 82
3 84 80 81
3 81 85 84
3 85 87 86
3 86 84 85
3 86 87 83
3 83 82 86
3 83 87 85
3 85 81 83
3 89 88 90
3 90 91 89
3 90 88 92
3 92 94 90
3 92 88 89
3 89 93 92
3 93 95 94
3 94 92 93
3 94 95 91
3 91 90 94
3 91 95 93
3 93 89 91
